# xmcd
#
# Track frame offsets: 
#        150
#        17608
#        42030
#        65748
#        82251
#
# Disc length: 1319 seconds
#
# Revision: 0
# Processed by: cddbd v1.5.2PL0 Copyright (c) Steve Scherf et al.
# Submitted via: ExactAudioCopy v1.0b3
#
DISCID=3b052505
DTITLE=Mariana Mox - Flowers
DYEAR=2010
DGENRE=Country
TTITLE0=Flowers
TTITLE1=Here it Comes again
TTITLE2=Cold Cold Snow
TTITLE3=Under the influence of you
TTITLE4=Until December
EXTD=
EXTT0=
EXTT1=
EXTT2=
EXTT3=
EXTT4=
PLAYORDER=
